<?xml version="1.0" encoding="UTF-8"?>
<svg width="249.35mm" height="32.808mm" version="1.1" viewBox="0 0 249.35 32.808" xmlns="http://www.w3.org/2000/svg"><g transform="translate(-40.733 -130.09)"><g transform="matrix(1.0985 0 0 1.0985 40.733 130.09)" fill="#1f1f1f"><path d="m217.55 18.077 8.987-8.0988h-5.58l-7.748 7.0682v-14.961h-4.21v25.256h4.21v-7.8926l8.084 7.8926h5.711zm-20.478-5.1813v-2.9176h-4.241v17.363h4.241v-9.1294c0-2.7434 1.304-3.98 4.908-3.98h4.511v-4.3568h-3.94c-3.743 0-5.044 2.0256-5.479 3.0206zm-16.297-3.3617c-5.209 0-9.118 3.8415-9.118 9.1293 0 5.2843 3.909 9.1258 9.118 9.1258 5.144 0 9.088-3.8415 9.088-9.1258 0-5.2878-3.944-9.1293-9.088-9.1293zm0 14.343c-2.871 0-4.808-2.2992-4.808-5.2167 0-2.9176 1.937-5.2168 4.808-5.2168 2.84 0 4.777 2.2637 4.777 5.2168 0 2.9495-1.937 5.2167-4.777 5.2167zm-17.86-2.3347-4.14-11.702h-3.778l-4.175 11.805-3.906-11.667h-4.645l6.313 17.502h3.743l4.275-12.079 4.31 12.079h3.84l6.178-17.502h-4.14zm-30.219-12.011c-5.179 0-8.852 3.742-8.852 9.1294 0 5.2167 3.673 9.1257 9.184 9.1257 5.745 0 8.049-3.7384 8.316-5.5259h-4.21c-0.301 0.4798-1.405 1.887-4.11 1.887-2.805 0-4.711-2.0576-4.912-4.769h13.429v-0.4797c7e-3 -5.693-3.636-9.3674-8.845-9.3674zm-4.442 6.8302c0.533-2.1287 2.138-3.4293 4.442-3.4293 2.172 0 3.774 1.2331 4.376 3.4293zm-14.394-6.7591c-3.573 0-5.444 2.2992-6.212 3.877-1.069-2.3667-3.273-3.877-6.147-3.877-3.0411 0-4.9091 2.0256-5.5456 3.2942v-2.9175h-4.241v17.363h4.241v-9.2644c0-2.6759 1.6362-4.5628 4.1756-4.5628 2.473 0 4.009 1.8194 4.009 4.5628v9.2644h4.276v-9.2644c0-2.6759 1.636-4.5628 4.175-4.5628 2.473 0 4.009 1.8194 4.009 4.5628v9.2644h4.276v-10.124c0-4.4243-2.74-7.6155-7.016-7.6155zm-30.773 2.9851c-0.3667-0.7214-2.072-2.9851-5.6454-2.9851-4.3759 0-7.9838 3.4328-7.9838 9.0582 0 5.6965 3.6079 9.0583 7.9492 9.0583 3.7083 0 5.3791-2.4023 5.7112-3.1237v2.747h4.2409v-17.363h-4.2755v2.6084zm-4.5419 11.29c-2.8711 0-4.7426-2.2637-4.7426-5.2168 0-2.9495 1.8715-5.2167 4.7426-5.2167 2.7708 0 4.6111 2.2637 4.6111 5.2167-0.0034 2.9496-1.8403 5.2168-4.6111 5.2168zm-19.762-10.981v-2.9176h-4.241v17.363h4.241v-9.1294c0-2.7434 1.3042-3.98 4.9087-3.98h4.5108v-4.3568h-3.9401c-3.7394 0-5.0435 2.0256-5.4794 3.0206zm-12.796-4.5984c0-1.7484 0.8025-2.7114 2.674-2.7114h5.9775v-3.5004h-7.2817c-3.8397 0-5.6454 1.99-5.6454 5.3554v2.5373h-4.6422v3.7064h4.6422v13.657h4.2756v-13.657h6.0467v-3.7064h-6.0467z"/><path d="m29.836 11.164-2.2831-1.354c-1.0689-0.6361-1.7296-1.8088-1.7296-3.0775v-2.7079c0-0.55437-0.2456-1.0768-0.6642-1.425-1.2453-1.0341-2.6463-1.8728-4.1614-2.4733-0.5051-0.199-1.0689-0.15991-1.5359 0.11727l-2.2865 1.3575c-1.0689 0.63611-2.3869 0.63611-3.4592 0l-2.2866-1.3575c-0.467-0.27718-1.0343-0.31983-1.5359-0.11727-1.5186 0.60057-2.9161 1.4392-4.158 2.4698-0.41856 0.34825-0.66416 0.87064-0.66416 1.425v2.7079c0 1.2686-0.65725 2.4414-1.7296 3.0775l-2.2831 1.3539c-0.467 0.2772-0.78524 0.757-0.86826 1.3042-0.12799 0.8067-0.19026 1.6312-0.19026 2.4698 0 0.8387 0.062266 1.6631 0.1868 2.4662 0.083021 0.5473 0.40127 1.0306 0.86826 1.3078l2.2831 1.3539c1.0689 0.6361 1.7296 1.8088 1.7296 3.0775v2.7079c0 0.5543 0.2456 1.0767 0.66416 1.425 1.2419 1.0305 2.6428 1.8692 4.158 2.4698 0.50503 0.199 1.0689 0.1599 1.5359-0.1173l2.2865-1.3575c1.0689-0.6361 2.3868-0.6361 3.4592 0l2.2865 1.3575c0.467 0.2772 1.0343 0.3163 1.5359 0.1173 1.5152-0.6006 2.9161-1.4393 4.158-2.4698 0.4186-0.3483 0.6642-0.8707 0.6642-1.425v-2.7079c0-1.2687 0.6607-2.4414 1.7296-3.0775l2.283-1.3539c0.467-0.2772 0.7853-0.7569 0.8683-1.3078 0.1211-0.8031 0.1868-1.6275 0.1868-2.4662 0-0.8386-0.0623-1.6631-0.1868-2.4662-0.0796-0.5473-0.3944-1.027-0.8613-1.3042zm-14.39 13.305c-5.1231 0-9.2776-4.268-9.2776-9.5309 0-5.263 4.1545-9.5309 9.2776-9.5309 5.123 0 9.2775 4.2679 9.2775 9.5309 0 5.2629-4.1545 9.5309-9.2775 9.5309z"/></g></g></svg>
